HIERARCHY
ROOT Hips
{
	OFFSET -0.179506 -22.333345 2.821913
	CHANNELS 6 Xposition Yposition Zposition Zrotation Yrotation Xrotation 
	JOINT LeftUpLeg
	{
		OFFSET 6.951974 -9.140623 -0.681533
		CHANNELS 3 Zrotation Yrotation Xrotation
		JOINT LeftLeg
		{
			OFFSET 3.427654 -37.519855 -0.449580
			CHANNELS 3 Zrotation Yrotation Xrotation
			JOINT LeftFoot
			{
				OFFSET -1.359570 -39.796059 -4.369333
				CHANNELS 3 Zrotation Yrotation Xrotation
				JOINT LeftToe
				{
					OFFSET 2.635814 -5.579078 11.928840
					CHANNELS 3 Zrotation Yrotation Xrotation
					End Site
					{
						OFFSET 0.000000 0.000000 0.000000
					}
				}
			}
		}
	}
	JOINT RightUpLeg
	{
		OFFSET -6.767048 -9.052170 -0.431982
		CHANNELS 3 Zrotation Yrotation Xrotation
		JOINT RightLeg
		{
			OFFSET -3.829005 -38.256897 -0.885003
			CHANNELS 3 Zrotation Yrotation Xrotation
			JOINT RightFoot
			{
				OFFSET 1.577377 -39.841461 -4.231180
				CHANNELS 3 Zrotation Yrotation Xrotation
				JOINT RightToe
				{
					OFFSET -2.537174 -4.814398 12.334795
					CHANNELS 3 Zrotation Yrotation Xrotation
					End Site
					{
						OFFSET 0.000000 0.000000 0.000000
					}
				}
			}
		}
	}
	JOINT Spine
	{
		OFFSET -0.253288 10.896323 -2.669631
		CHANNELS 3 Zrotation Yrotation Xrotation
		JOINT Spine1
		{
			OFFSET 0.548704 13.518043 0.109247
			CHANNELS 3 Zrotation Yrotation Xrotation
			JOINT Spine2
			{
				OFFSET 0.145701 5.292222 2.542457
				CHANNELS 3 Zrotation Yrotation Xrotation
				JOINT Neck
				{
					OFFSET -0.277840 21.387037 -4.285703
					CHANNELS 3 Zrotation Yrotation Xrotation
					JOINT Head
					{
						OFFSET 0.515184 6.496960 5.134897
						CHANNELS 3 Zrotation Yrotation Xrotation
						End Site
						{
							OFFSET 0.000000 0.000000 0.000000
						}
					}
				}
				JOINT LeftShoulder
				{
					OFFSET 7.884473 12.174932 -3.408961
					CHANNELS 3 Zrotation Yrotation Xrotation
					JOINT LeftArm
					{
						OFFSET 9.097692 3.046888 -0.886815
						CHANNELS 3 Zrotation Yrotation Xrotation
						JOINT LeftForeArm
						{
							OFFSET 25.961220 -1.277207 -2.745643
							CHANNELS 3 Zrotation Yrotation Xrotation
							JOINT LeftHand
							{
								OFFSET 24.923361 0.898606 -0.117091
								CHANNELS 3 Zrotation Yrotation Xrotation
								End Site
								{
									OFFSET 0.000000 0.000000 0.000000
								}
							}
						}
					}
				}
				JOINT RightShoulder
				{
					OFFSET -8.175920 11.883285 -3.861528
					CHANNELS 3 Zrotation Yrotation Xrotation
					JOINT RightArm
					{
						OFFSET -9.601238 3.255117 -0.914307
						CHANNELS 3 Zrotation Yrotation Xrotation
						JOINT RightForeArm
						{
							OFFSET -25.374195 -1.332924 -2.140099
							CHANNELS 3 Zrotation Yrotation Xrotation
							JOINT RightHand
							{
								OFFSET -25.529810 0.777228 -0.555919
								CHANNELS 3 Zrotation Yrotation Xrotation
								End Site
								{
									OFFSET 0.000000 0.000000 0.000000
								}
							}
						}
					}
				}
			}
		}
	}
}
MOTION
Frames: 13
Frame Time: 0.033333
-34.147079 35.321331 95.468224 176.557457 -1.000289 90.048315 -2.731897 -2.228794 7.542187 4.733417 -15.456422 -7.631502 1.553533 13.490109 -1.312198 nan nan nan 0.235023 -1.356924 4.705045 1.292530 4.038740 -6.857361 4.978836 -11.697857 -2.339174 nan nan nan 1.199867 1.275306 4.393487 1.350125 -1.051911 2.414688 0.519566 -1.347046 3.859500 -14.982396 2.179253 -5.298700 -8.284576 3.648573 -27.131796 -12.920965 12.342021 6.862206 -66.420532 19.902581 5.414272 2.426310 -6.693481 3.259480 -27.469312 -18.542115 -18.031395 11.744572 -12.863011 2.610664 61.839384 -23.636347 4.759646 -5.497687 20.158036 16.004122 27.308052 5.185808 -5.931235 
-34.152359 35.275894 95.477585 176.533791 -0.995432 90.174750 -2.743451 -2.271537 7.369338 4.754001 -15.334268 -7.611113 1.520187 13.391651 -1.324003 nan nan nan 0.235999 -1.339478 4.535570 1.248507 4.024481 -6.887549 5.161248 -11.573875 -2.224902 nan nan nan 1.224379 1.305443 4.484198 1.305633 -1.061960 2.343981 0.557540 -1.320559 3.830843 -15.176245 2.161144 -5.603784 -8.299165 3.664484 -27.122439 -13.314961 11.872441 6.671122 -66.162915 19.516181 5.634659 2.387955 -6.823550 3.204968 -26.907696 -18.355765 -17.175514 12.001275 -12.513613 2.512079 61.498511 -23.228562 4.725257 -5.416357 20.232738 16.027135 26.689801 4.924477 -5.052171 
-34.169388 35.211361 95.511353 176.414458 -0.993265 90.331991 -2.784758 -2.319091 7.161641 4.766201 -15.132502 -7.567459 1.550680 13.335544 -1.339700 nan nan nan 0.226410 -1.269190 4.282335 1.205348 4.038426 -6.831972 5.330823 -11.510102 -2.131774 nan nan nan 1.324835 1.351543 4.594679 1.243026 -1.031302 2.275468 0.534077 -1.238839 3.700613 -15.272473 2.155282 -5.966947 -8.382067 3.804124 -26.880581 -13.630176 11.527445 6.438641 -65.706434 19.015695 6.000077 2.079425 -6.893433 3.133089 -26.597742 -18.081689 -16.455353 12.152707 -12.272935 2.404556 61.115623 -22.610543 4.800401 -5.131576 20.049647 15.773155 26.314166 4.690292 -4.611343 
-34.183414 35.150043 95.518181 176.352162 -0.984243 90.465466 -2.787568 -2.353785 6.971881 4.763020 -15.025840 -7.558110 1.548857 13.307443 -1.299271 nan nan nan 0.246410 -1.207095 4.105272 1.186690 4.041171 -6.857016 5.255900 -11.536770 -2.089169 nan nan nan 1.382281 1.366206 4.687675 1.208412 -1.037666 2.281483 0.521677 -1.149322 3.544242 -15.348405 2.163248 -6.255298 -8.395236 3.918086 -26.721762 -13.890383 11.136395 6.167702 -65.380326 18.501697 6.356019 1.994688 -6.982311 3.055312 -26.446564 -18.034126 -16.376908 12.316369 -11.921502 2.190358 60.788052 -22.034267 5.036289 -5.016986 19.891542 15.509336 26.060991 4.555495 -4.454608 
-34.197449 35.095188 95.522995 176.375163 -0.965137 90.600433 -2.768812 -2.390880 6.771813 4.774145 -15.006845 -7.538411 1.550622 13.314527 -1.265403 nan nan nan 0.286084 -1.164579 4.003916 1.142938 4.009148 -7.001907 4.986358 -11.571621 -1.988480 nan nan nan 1.372718 1.366363 4.591140 1.220028 -1.088447 2.530150 0.564744 -1.063251 3.364804 -15.468700 2.181511 -6.518636 -8.434312 4.049353 -26.704895 -14.275607 10.618045 5.946476 -65.091582 18.006204 6.635083 2.071393 -7.287047 2.849708 -26.095510 -17.990442 -16.425265 12.575303 -11.444798 1.990117 60.477982 -21.420412 5.195563 -5.153740 19.802366 15.141603 25.651278 4.350325 -4.177915 
-34.205353 35.050251 95.520363 176.385381 -0.967319 90.781176 -2.781453 -2.444644 6.545611 4.801065 -14.933082 -7.535521 1.557465 13.310944 -1.277880 nan nan nan 0.305963 -1.137917 3.829406 1.107829 3.961141 -7.113975 4.787700 -11.581001 -1.862198 nan nan nan 1.342910 1.382396 4.411019 1.221104 -1.146402 2.796345 0.597977 -0.996140 3.134066 -15.629586 2.268110 -6.694061 -8.487083 4.229183 -26.729544 -14.632251 10.090719 5.762103 -64.739064 17.499058 6.938404 2.108149 -7.592035 2.588714 -25.736714 -17.945006 -16.573449 12.852860 -10.958891 1.916324 60.190183 -20.732969 5.348249 -5.345374 19.760373 14.799046 25.181398 4.149008 -3.866359 
-34.205666 35.008671 95.517426 176.358576 -0.978729 90.919394 -2.767647 -2.431397 6.351032 4.764914 -14.842064 -7.508688 1.554240 13.245830 -1.325335 nan nan nan 0.283001 -1.183713 3.670352 1.107481 4.035023 -7.172057 4.975163 -11.509645 -1.736485 nan nan nan 1.327208 1.443378 4.378650 1.206031 -1.194335 2.893038 0.602419 -0.933643 2.932342 -15.809189 2.259903 -6.872192 -8.450247 4.446825 -26.647183 -15.015834 9.559802 5.592571 -64.266044 16.978837 7.311466 2.071820 -7.950591 2.507589 -25.032261 -17.840016 -16.738533 13.138724 -10.520234 1.802841 59.825988 -19.967701 5.475088 -5.283483 19.626401 14.527792 24.513802 3.976986 -3.621282 
-34.214943 34.965382 95.515190 176.326527 -1.009393 91.083953 -2.782217 -2.438140 6.121822 4.720871 -14.774528 -7.463825 1.584076 13.218420 -1.317135 nan nan nan 0.195908 -1.263332 3.481981 1.169323 4.068393 -7.219687 5.419267 -11.319228 -1.633760 nan nan nan 1.341704 1.560578 4.363240 1.138694 -1.198051 2.884339 0.590424 -0.873701 2.776585 -15.968199 2.128434 -7.009984 -8.308334 4.608208 -26.490029 -15.573178 8.900911 5.506975 -63.539599 16.400778 7.441738 1.861327 -8.335051 1.611259 -23.897921 -17.730923 -16.223954 13.504196 -9.996007 1.642833 59.446856 -19.218019 5.394223 -5.118875 19.358560 14.224398 23.603996 3.819372 -2.829045 
-34.242760 34.954933 95.512413 176.218498 -1.010086 91.172398 -2.826193 -2.406157 6.087754 4.773341 -14.742379 -7.573448 1.613632 13.296622 -1.277790 nan nan nan 0.118043 -1.317739 3.377976 1.266767 4.051240 -7.238280 5.467524 -11.124986 -1.614336 nan nan nan 1.465787 1.644939 4.289519 1.004826 -1.180936 2.952849 0.520797 -0.721395 2.693937 -16.057758 2.027291 -7.009919 -8.125105 4.683691 -26.456475 -16.245093 8.141904 5.316673 -62.621319 15.768968 7.604076 1.443738 -8.530690 0.451656 -22.797173 -18.109681 -15.858616 13.877789 -9.286397 1.374754 59.189495 -18.514878 5.313836 -5.120683 18.823948 13.867313 22.857245 3.885732 -1.724371 
-34.267040 34.931831 95.513565 176.164031 -1.009623 91.179985 -2.852077 -2.459861 6.105028 4.775148 -14.737597 -7.636829 1.667914 13.428483 -1.255944 nan nan nan 0.063912 -1.356482 3.350321 1.346330 4.018333 -7.257479 5.223817 -11.055667 -1.580995 nan nan nan 1.507142 1.677580 4.377328 0.920418 -1.218945 2.886149 0.532275 -0.584538 2.689451 -16.184013 1.909585 -7.043019 -7.982388 4.856253 -26.437555 -16.778412 7.406371 4.908715 -62.072774 15.100334 8.166334 1.395470 -8.467560 0.341204 -21.836372 -18.583058 -16.420325 14.156032 -8.563996 0.940737 58.901825 -17.793642 5.575017 -5.196354 18.269249 13.524141 22.339630 4.049915 -1.306386 
-34.265923 34.831623 95.525818 176.337520 -1.066969 91.202628 -2.877250 -2.750327 5.902383 4.647025 -14.571000 -7.446860 1.653421 13.392641 -1.279548 nan nan nan 0.013435 -1.387046 3.277786 1.371580 3.854992 -7.267089 5.111647 -11.048799 -1.531868 nan nan nan 1.396167 1.738941 4.749483 0.884580 -1.313657 2.611932 0.660636 -0.614027 2.553328 -16.360792 1.854665 -7.124718 -7.845656 4.997481 -26.323097 -17.190590 6.545931 4.613512 -61.837411 14.320749 8.601768 1.739053 -8.225594 -0.216982 -21.548843 -18.648859 -16.269843 14.507111 -7.884400 0.623808 58.502564 -17.109044 5.807734 -5.265177 18.152164 12.981943 21.976285 3.970857 -0.953858 
-34.266815 34.730518 95.531860 176.457254 -1.086855 91.209265 -2.879504 -2.988351 5.716078 4.559246 -14.396715 -7.226588 1.642434 13.299023 -1.358206 nan nan nan 0.011505 -1.383313 3.208040 1.368187 3.748546 -7.242118 5.073710 -11.037605 -1.505888 nan nan nan 1.392932 1.841929 5.128946 0.818720 -1.355413 2.349829 0.731305 -0.626694 2.389546 -16.513004 1.798021 -7.156760 -7.691369 5.094398 -26.174921 -17.740249 5.532852 4.488034 -61.416742 13.529426 8.895059 2.042003 -8.161260 -1.194433 -21.531740 -18.566848 -15.462357 14.939858 -7.208166 0.359196 58.095788 -16.454418 5.839457 -5.343483 18.181794 12.312675 21.613015 3.753684 -0.358507 
-34.272179 34.690979 95.527168 176.365164 -1.113552 91.264073 -2.892626 -2.948758 5.646494 4.530237 -14.414683 -7.243731 1.665855 13.349964 -1.358307 nan nan nan -0.002936 -1.351710 3.100704 1.335856 3.802558 -7.188441 4.933087 -11.065826 -1.512407 nan nan nan 1.377413 1.936584 5.089113 0.792822 -1.329970 2.486119 0.679043 -0.501303 2.218418 -16.630461 1.555453 -7.155582 -7.513117 5.340174 -26.050934 -18.327169 4.560638 4.387011 -60.796337 12.797729 9.580948 2.117662 -8.485936 -0.919627 -20.285954 -18.566975 -15.926719 15.395696 -6.529626 0.029840 57.671181 -15.680591 6.171911 -5.383268 18.026819 11.947172 20.367975 3.670411 -0.129591 
